<svg width="20" height="25" viewBox="0 0 20 25" fill="none" xmlns="http://www.w3.org/2000/svg">
<g clip-path="url(#clip0)">
<path d="M10.0002 24.9995C9.35815 24.9995 8.78324 24.7165 8.46235 24.2425C8.45896 24.2375 8.45569 24.2324 8.45242 24.2274L1.1591 12.8804C-0.581821 10.1719 -0.531902 6.95701 1.29266 4.28064C3.07765 1.66228 6.24814 0.0626221 9.77376 0.00148926C9.92438 -0.00114746 10.0758 -0.00114746 10.2263 0.00148926C13.752 0.0626221 16.9225 1.66228 18.7075 4.28064C20.5321 6.95701 20.582 10.1718 18.8411 12.8804L11.5478 24.2274C11.5445 24.2324 11.5412 24.2375 11.5378 24.2425C11.217 24.7165 10.6422 24.9995 10.0002 24.9995ZM10.0001 1.56204C9.93696 1.56204 9.874 1.56257 9.81116 1.56365C6.93323 1.61355 4.34327 2.92209 2.88308 5.06404C1.38337 7.26399 1.34189 9.90593 2.77221 12.1312L10.0001 23.3763L17.2279 12.1313C18.6582 9.90593 18.6168 7.26399 17.117 5.06404C15.6568 2.92214 13.0668 1.61355 10.1889 1.56365C10.1262 1.56257 10.0632 1.56204 10.0001 1.56204Z" fill="black"/>
<path d="M10 11.3281C7.71942 11.3281 5.86401 9.75103 5.86401 7.8125C5.86401 5.87397 7.71942 4.29688 10 4.29688C12.2807 4.29688 14.1361 5.87397 14.1361 7.8125C14.1361 9.75103 12.2807 11.3281 10 11.3281ZM10 5.85938C8.73304 5.85938 7.70225 6.73555 7.70225 7.8125C7.70225 8.88945 8.73304 9.76562 10 9.76562C11.267 9.76562 12.2978 8.88945 12.2978 7.8125C12.2978 6.73555 11.267 5.85938 10 5.85938Z" fill="black"/>
</g>
<defs>
<clipPath id="clip0">
<rect width="20" height="25" fill="white"/>
</clipPath>
</defs>
</svg>
