<svg width="95" height="91" viewBox="0 0 95 91" fill="none" xmlns="http://www.w3.org/2000/svg">
<g opacity="0.48">
<path d="M69.2842 0H25.7156C11.5358 0 0 11.0501 0 24.6328V66.3677C0 79.9498 11.5358 90.9998 25.7156 90.9998H69.285C83.464 90.9998 94.9998 79.9498 94.9998 66.3677V24.6328C94.9998 11.0501 83.464 0 69.2842 0V0ZM89.4305 66.3677C89.4305 77.0081 80.3931 85.665 69.2842 85.665H25.7156C14.6067 85.665 5.56929 77.0081 5.56929 66.3677V24.6328C5.56929 13.9917 14.6067 5.3348 25.7156 5.3348H69.285C80.3931 5.3348 89.4305 13.9917 89.4305 24.6328V66.3677Z" fill="black"/>
<path d="M47.5 20.6177C33.1766 20.6177 21.5242 31.7795 21.5242 45.4997C21.5242 59.22 33.1766 70.3818 47.5 70.3818C61.8233 70.3818 73.4757 59.22 73.4757 45.4997C73.4757 31.7795 61.8233 20.6177 47.5 20.6177ZM47.5 65.047C36.2483 65.047 27.0935 56.2783 27.0935 45.4997C27.0935 34.7218 36.2483 25.9525 47.5 25.9525C58.7523 25.9525 67.9064 34.7218 67.9064 45.4997C67.9064 56.2783 58.7523 65.047 47.5 65.047Z" fill="black"/>
<path d="M74.0969 11.7812C69.8641 11.7812 66.4214 15.0797 66.4214 19.1336C66.4214 23.1882 69.8641 26.4867 74.0969 26.4867C78.3297 26.4867 81.7732 23.1882 81.7732 19.1336C81.7732 15.079 78.3297 11.7812 74.0969 11.7812ZM74.0969 21.1512C72.9358 21.1512 71.9907 20.2458 71.9907 19.1336C71.9907 18.0207 72.9358 17.116 74.0969 17.116C75.2588 17.116 76.2039 18.0207 76.2039 19.1336C76.2039 20.2458 75.2588 21.1512 74.0969 21.1512Z" fill="black"/>
</g>
</svg>
