<svg width="40" height="40" viewBox="0 0 40 40" fill="none" xmlns="http://www.w3.org/2000/svg">
<g clip-path="url(#clip0)">
<path d="M28.7483 40C27.4571 40 26.1769 39.7717 24.925 39.3169C19.4097 37.3134 14.2904 34.0502 10.1203 29.8802C5.95013 25.7101 2.68698 20.5907 0.683551 15.0755C0.0397494 13.303 -0.150243 11.4734 0.119043 9.63726C0.371298 7.91733 1.03752 6.24763 2.04576 4.80863C3.05845 3.3633 4.40855 2.16116 5.95005 1.33221C7.59389 0.448263 9.38812 0 11.283 0C11.8724 0 12.3817 0.41178 12.5053 0.988006L14.4672 10.1438C14.556 10.5584 14.4286 10.9898 14.1289 11.2896L10.7764 14.642C13.9389 20.9297 19.0706 26.0614 25.3583 29.2239L28.7107 25.8714C29.0105 25.5717 29.442 25.4444 29.8565 25.5331L39.0123 27.495C39.5886 27.6186 40.0003 28.1279 40.0003 28.7173C40.0003 30.6122 39.552 32.4065 38.668 34.0503C37.8391 35.5918 36.6369 36.9419 35.1916 37.9546C33.7527 38.9629 32.083 39.6291 30.363 39.8813C29.824 39.9605 29.2851 39.9999 28.7483 40ZM10.2843 2.55458C7.78482 2.83051 5.56632 4.14061 4.0931 6.24326C2.43645 8.60762 2.05014 11.5157 3.03322 14.222C6.88494 24.8252 15.1753 33.1155 25.7785 36.9672C28.4847 37.9503 31.3928 37.5641 33.7572 35.9074C35.8598 34.4341 37.1699 32.2156 37.4459 29.7161L29.9977 28.1201L26.4966 31.6212C26.124 31.9938 25.5579 32.0927 25.0812 31.8687C17.6448 28.3751 11.6254 22.3556 8.13176 14.9192C7.90779 14.4425 8.00669 13.8764 8.37925 13.5039L11.8804 10.0028L10.2843 2.55458Z" fill="#716F6F"/>
</g>
<defs>
<clipPath id="clip0">
<rect width="40" height="40" fill="white"/>
</clipPath>
</defs>
</svg>
