<svg width="96" height="91" viewBox="0 0 96 91" fill="none" xmlns="http://www.w3.org/2000/svg">
<path opacity="0.48" d="M95.2076 1.5802C94.2671 0.158976 92.7078 -0.368076 91.3213 0.264386L3.26094 39.7469C1.50167 40.5402 0.266807 42.464 0.0375595 44.7676C-0.189491 47.0602 0.624961 49.2848 2.15279 50.5651L14.7402 61.2261C15.9597 62.2593 17.5278 62.3702 18.8337 61.5151L46.1383 43.6507L24.8578 63.3652C23.8588 64.2912 23.2619 65.7678 23.2619 67.3145V85.5759C23.2619 87.4597 24.0946 89.1853 25.435 90.0813C26.7775 90.9773 28.3991 90.8882 29.6742 89.845L39.2374 81.9747L48.6417 89.9305C49.4657 90.6311 50.4471 91 51.4374 91C51.7721 91 52.1083 90.9573 52.4393 90.8719C53.7599 90.5302 54.9281 89.5179 55.6451 88.0949L95.4866 6.58537C96.2622 5.01603 96.1509 3.00778 95.2076 1.5802ZM51.2272 83.6667L41.4882 75.4274C40.8107 74.8531 40.0299 74.566 39.2499 74.566C38.4867 74.566 37.7228 74.8413 37.0541 75.392L28.8898 82.111V68.3449L66.4666 33.5332C68.1446 31.9784 68.5672 29.1486 67.4488 26.9514C66.3297 24.7541 64.0892 24.0117 62.2369 25.2239L17.0905 54.7615L6.44404 45.7444L87.5355 9.38693L51.2272 83.6667Z" fill="black"/>
</svg>
