<svg width="95" height="91" viewBox="0 0 95 91" fill="none" xmlns="http://www.w3.org/2000/svg">
<g opacity="0.48" clip-path="url(#clip0)">
<path d="M81.5065 12.9253C72.8046 4.58985 61.2377 0 48.9307 0C48.93 0 48.9271 0 48.9263 0C42.8395 0.000694275 36.9078 1.12959 31.2972 3.35612C25.6859 5.58266 20.6587 8.80202 16.3542 12.9253C7.65303 21.2601 2.86143 32.3421 2.86143 44.1295C2.86143 51.159 4.6321 58.1448 7.98716 64.369L0.24348 85.5597C-0.302289 87.0544 0.0840258 88.679 1.25384 89.7989C2.07213 90.5834 3.14917 91 4.25666 91C4.7314 91 5.21121 90.9236 5.67942 90.7667L27.8015 83.3498C34.2993 86.5636 41.5922 88.2597 48.9307 88.2597C61.2362 88.2597 72.8046 83.6692 81.5065 75.3344C90.2076 66.9996 94.9999 55.9176 94.9999 44.1302C94.9999 32.3421 90.2083 21.2601 81.5065 12.9253ZM77.5665 71.5603C69.9178 78.8877 59.7475 82.9221 48.9307 82.9221C42.3133 82.9221 35.7395 81.3544 29.9194 78.3871C28.8641 77.8497 27.6167 77.7574 26.4969 78.133L6.39842 84.8709L13.4333 65.6187C13.8254 64.5447 13.7282 63.3498 13.1673 62.3396C10.0702 56.766 8.43291 50.4689 8.43291 44.1295C8.43291 33.7681 12.6454 24.0261 20.2941 16.6994C27.9422 9.37341 38.111 5.33828 48.9271 5.33689H48.9307C59.7482 5.33689 69.9178 9.37202 77.5665 16.6994C85.216 24.0261 89.4285 33.7674 89.4285 44.1295C89.4285 54.4916 85.216 64.2336 77.5665 71.5603Z" fill="black"/>
<path d="M66.0518 48.0717C63.9325 46.0416 60.4839 46.0416 58.3646 48.0717L56.0467 50.292C50.2911 47.2879 45.6336 42.8265 42.4967 37.3132L44.8146 35.0929C46.9346 33.0629 46.9346 29.7595 44.8146 27.7294L38.5684 21.7462C36.4491 19.7161 33.0005 19.7161 30.8812 21.7462L25.8845 26.5325C23.0223 29.2742 22.8795 33.9876 25.4822 39.805C27.7421 44.8558 31.8778 50.4072 37.1275 55.4359C42.3771 60.4645 48.1726 64.426 53.4454 66.5908C56.3308 67.7752 58.9553 68.3661 61.2232 68.3661C63.7288 68.3661 65.7988 67.6447 67.3013 66.2055L72.298 61.4184V61.4191C73.3251 60.4353 73.8904 59.128 73.8904 57.7374C73.8904 56.3461 73.3251 55.0387 72.298 54.0557L66.0518 48.0717ZM63.3613 62.4314C62.5445 63.2138 60.0324 63.4881 55.6408 61.6857C51.0036 59.782 45.8279 56.2218 41.0674 51.6618C36.307 47.1018 32.591 42.1447 30.6036 37.7027C28.7213 33.4961 29.0076 31.089 29.8245 30.3066L34.7255 25.6119L40.779 31.4112L37.8776 34.1911C36.5658 35.4477 36.249 37.3535 37.0905 38.9337C40.9051 46.0986 46.8752 51.8173 54.3551 55.4713C56.0054 56.2773 57.995 55.9746 59.3068 54.7173L62.2082 51.9381L68.2624 57.7374L63.3613 62.4314Z" fill="black"/>
</g>
<defs>
<clipPath id="clip0">
<rect width="95" height="91" fill="white"/>
</clipPath>
</defs>
</svg>
