<svg width="47" height="30" viewBox="0 0 47 30" fill="none" xmlns="http://www.w3.org/2000/svg">
<g clip-path="url(#clip0)">
<path d="M2.14805 22.2396L23.6557 9.06491L45.1633 22.2396C45.5645 22.477 46.204 22.4701 46.5917 22.2244C46.9697 21.9846 46.9697 21.6045 46.5917 21.3647L24.3689 7.75328C23.9744 7.51175 23.335 7.51175 22.9405 7.75328L0.717712 21.3647C0.316471 21.6022 0.305393 21.9938 0.692902 22.2396C1.08051 22.4854 1.71992 22.4922 2.12125 22.2548C2.12968 22.2498 2.13792 22.2448 2.14606 22.2396L2.14805 22.2396Z" fill="#FFC107"/>
<path d="M23.6554 7.57138C23.9235 7.57109 24.1808 7.63605 24.3706 7.75206L46.5934 21.3635C46.981 21.6093 46.9698 22.001 46.5686 22.2384C46.1771 22.4699 45.5565 22.4699 45.1651 22.2384L23.6555 9.06496L2.14789 22.2396C1.76029 22.4854 1.12088 22.4922 0.719543 22.2548C0.318302 22.0174 0.307224 21.6258 0.694733 21.3799C0.702877 21.3748 0.711113 21.3697 0.719543 21.3647L22.9422 7.75328C23.1313 7.63715 23.3878 7.57178 23.6554 7.57138Z" fill="black"/>
</g>
<defs>
<clipPath id="clip0">
<path d="M46.877 14.9999C46.877 22.8594 40.5056 29.2307 32.6462 29.2307L14.6399 29.2307C6.78049 29.2307 0.409153 22.8594 0.409153 14.9999C0.409153 7.14051 6.78049 0.769175 14.6399 0.769175L32.6462 0.769175C40.5056 0.769175 46.877 7.14051 46.877 14.9999Z" fill="white"/>
</clipPath>
</defs>
</svg>
